<svg xmlns="http://www.w3.org/2000/svg" width="16" height="16" viewBox="0 0 512 512">
  <!-- Font Awesome Free 5.15.4 by @fontawesome - https://fontawesome.com License - https://fontawesome.com/license/free (Icons: CC BY 4.0, Fonts: SIL OFL 1.1, Code: MIT License) -->
  <path fill="#28a745" d="M256 8C119.033 8 8 119.033 8 256s111.033 248 248 248 248-111.033 248-248S392.967 8 256 8zm0 464c-118.664 0-216-96.055-216-216 0-118.663 96.055-216 216-216 118.664 0 216 96.055 216 216 0 118.663-96.055 216-216 216zm141.63-274.961L217.15 376.071c-4.705 4.667-12.303 4.637-16.97-.068l-85.878-86.572c-4.667-4.705-4.637-12.303.068-16.97l22.719-22.536c4.705-4.667 12.303-4.637 16.97.068l54.17 54.608 141.452-140.268c4.705-4.667 12.303-4.637 16.97.068l22.536 22.718c4.667 4.705 4.637 12.303-.068 16.97z"/>
</svg>
