<svg xmlns="http://www.w3.org/2000/svg" width="16" height="16" viewBox="0 0 16 16">
  <path fill="#888888" d="M8 5a3 3 0 1 0 0 6 3 3 0 0 0 0-6zm0 5a2 2 0 1 1 0-4 2 2 0 0 1 0 4zm7-3h-1.3a6 6 0 0 0-.8-2l.9-.9c.2-.2.2-.5 0-.7l-1.4-1.4a.5.5 0 0 0-.7 0l-.9.9a6 6 0 0 0-2-.8V1c0-.3-.2-.5-.5-.5h-2c-.3 0-.5.2-.5.5v1.3c-.7.2-1.4.5-2 .8l-.9-.9a.5.5 0 0 0-.7 0L1.4 2.9a.5.5 0 0 0 0 .7l.9.9a6 6 0 0 0-.8 2H1c-.3 0-.5.2-.5.5v2c0 .3.2.5.5.5h1.3c.2.7.5 1.4.8 2l-.9.9a.5.5 0 0 0 0 .7l1.4 1.4c.2.2.5.2.7 0l.9-.9c.6.3 1.3.6 2 .8V15c0 .3.2.5.5.5h2c.3 0 .5-.2.5-.5v-1.3c.7-.2 1.4-.5 2-.8l.9.9c.2.2.5.2.7 0l1.4-1.4c.2-.2.2-.5 0-.7l-.9-.9c.3-.6.6-1.3.8-2H15c.3 0 .5-.2.5-.5V7.5c0-.3-.2-.5-.5-.5z"/>
</svg>
